<svg xmlns="http://www.w3.org/2000/svg" width="31.539" height="23.102" viewBox="0 0 31.539 23.102">
  <g id="email" transform="translate(0 -24.61)">
    <path id="パス_1265" data-name="パス 1265" d="M27.553,24.61H3.986A3.99,3.99,0,0,0,0,28.6v15.13a3.99,3.99,0,0,0,3.986,3.986H27.553a3.99,3.99,0,0,0,3.986-3.986V28.6A3.99,3.99,0,0,0,27.553,24.61Zm-.623,2.571L15.769,35.8,4.609,27.181Zm.623,17.96H3.986a1.416,1.416,0,0,1-1.415-1.415V28.856l12.412,9.588a1.286,1.286,0,0,0,1.572,0l12.412-9.588v14.87A1.416,1.416,0,0,1,27.553,45.141Z" fill="#fff"/>
  </g>
</svg>
