<svg xmlns="http://www.w3.org/2000/svg" xmlns:xlink="http://www.w3.org/1999/xlink" width="51.274" height="43.94" viewBox="0 0 51.274 43.94">
  <defs>
    <clipPath id="clip-path">
      <rect id="長方形_422" data-name="長方形 422" width="51.274" height="43.94" fill="#789529"/>
    </clipPath>
  </defs>
  <g id="グループ_2113" data-name="グループ 2113" clip-path="url(#clip-path)">
    <path id="パス_1264" data-name="パス 1264" d="M51.084,24.431l-8.091-9.716h5.136a.824.824,0,0,0,.647-1.333L38.482.3a.853.853,0,0,0-1.3,0L31.736,7.227,26.285.3a.853.853,0,0,0-1.3,0L19.539,7.226,14.088.3a.852.852,0,0,0-1.295,0L2.5,13.382a.824.824,0,0,0,.647,1.333H8.282L.191,24.431a.824.824,0,0,0,.633,1.351H7.03L1.87,35a.824.824,0,0,0,.719,1.226H9.46v6.888a.824.824,0,1,0,1.647,0V35.406a.823.823,0,0,0-.824-.823H3.993l5.161-9.222a.824.824,0,0,0-.719-1.226H2.581l8.091-9.717a.823.823,0,0,0-.633-1.35h-5.2l8.6-10.929,5.05,6.419.041-.053-3.837,4.877a.824.824,0,0,0,.647,1.333h5.137l-8.091,9.716a.824.824,0,0,0,.633,1.351h6.207L14.067,35a.824.824,0,0,0,.719,1.226h6.871v6.888a.824.824,0,1,0,1.647,0V35.406a.823.823,0,0,0-.823-.823H16.19l5.161-9.222a.824.824,0,0,0-.719-1.226H14.779l8.091-9.717a.824.824,0,0,0-.633-1.35h-5.2l8.6-10.929,8.6,10.929h-5.2a.823.823,0,0,0-.633,1.35l8.09,9.717H30.643a.824.824,0,0,0-.719,1.226l5.161,9.222H28.794a.823.823,0,0,0-.823.823v7.711a.823.823,0,1,0,1.647,0V36.229h6.871A.824.824,0,0,0,37.208,35l-5.161-9.222h6.206a.824.824,0,0,0,.633-1.351L30.8,14.715h5.136a.824.824,0,0,0,.648-1.333l-3.8-4.824,5.05-6.42,8.6,10.929h-5.2a.824.824,0,0,0-.633,1.35l8.091,9.717H42.84a.824.824,0,0,0-.719,1.226l5.161,9.222H40.991a.823.823,0,0,0-.824.823v7.711a.824.824,0,0,0,1.647,0V36.229h6.871A.824.824,0,0,0,49.405,35l-5.161-9.222h6.206a.824.824,0,0,0,.633-1.351" transform="translate(0 0)" fill="#789529"/>
  </g>
</svg>
