<svg id="コンポーネント_15_1" data-name="コンポーネント 15 – 1" xmlns="http://www.w3.org/2000/svg" xmlns:xlink="http://www.w3.org/1999/xlink" width="254" height="169" viewBox="0 0 254 169">
  <defs>
    <clipPath id="clip-path">
      <rect id="長方形_427" data-name="長方形 427" width="84.85" height="80.899" fill="#fff"/>
    </clipPath>
  </defs>
  <rect id="長方形_4" data-name="長方形 4" width="254" height="169" rx="5" fill="#ebebea"/>
  <g id="グループ_2129" data-name="グループ 2129" transform="translate(86.438 30.544) rotate(2)">
    <g id="グループ_2128" data-name="グループ 2128" clip-path="url(#clip-path)">
      <path id="パス_1282" data-name="パス 1282" d="M78.667,101.443A10.053,10.053,0,1,0,68.613,111.5a10.064,10.064,0,0,0,10.055-10.053m-10.055,7.7a7.7,7.7,0,1,1,7.7-7.7,7.707,7.707,0,0,1-7.7,7.7" transform="translate(-23.337 -36.42)" fill="#fff"/>
      <path id="パス_1283" data-name="パス 1283" d="M72.6,101.377a4.045,4.045,0,1,0,4.044,4.044,4.051,4.051,0,0,0-4.044-4.044m0,5.736a1.691,1.691,0,1,1,1.69-1.692,1.694,1.694,0,0,1-1.69,1.692" transform="translate(-27.318 -40.4)" fill="#fff"/>
      <path id="パス_1284" data-name="パス 1284" d="M80.211,52.541A15.856,15.856,0,0,0,66.8,25.616h0A15.87,15.87,0,0,0,43.056,4.642a1.227,1.227,0,0,0-.076.115c-.009.008-.02.011-.029.019L19.565,28.162c-.136.132-.269.265-.4.4l-.073.074c-.008.008-.01.019-.018.027a15.687,15.687,0,0,0-3.909,14.649l-10.3,10.3c-.137.131-.269.265-.4.4l-.073.074c-.008.008-.011.019-.019.027A15.864,15.864,0,1,0,30.579,71a15.832,15.832,0,0,0,25.455,5.668s.007,0,.01-.006l.026-.026q.418-.388.805-.8L80.209,52.545l0,0m-35.6-46.1a1.12,1.12,0,0,0,.076-.115c.009-.008.021-.011.029-.019A13.523,13.523,0,0,1,63.846,25.428l0,0L46.016,43.221a15.746,15.746,0,0,0-7.288-17.247L54.664,10.038A1.177,1.177,0,0,0,53,8.374L36.513,24.86a15.593,15.593,0,0,0-9.6-.719ZM20.822,30.233l.413-.413A13.5,13.5,0,0,1,40.543,48.682l-.864.862,0,0A13.5,13.5,0,0,1,20.822,30.233M32.77,55.279a15.872,15.872,0,0,0-2.191,3.767,15.857,15.857,0,0,0-2.191-3.766,14.285,14.285,0,0,0,4.382,0M15.985,45.82a15.871,15.871,0,0,0,2.083,3.5,15.853,15.853,0,0,0-2.191-.17,15.812,15.812,0,0,0-3.662.443Zm-.108,32.725A13.5,13.5,0,0,1,6.123,55.682l.413-.413a13.516,13.516,0,1,1,9.341,23.275M31.756,65.022a13.523,13.523,0,1,1,23.487,9.108l-.864.863,0,0a13.5,13.5,0,0,1-22.621-9.973M59.6,58.206,72.167,45.633A1.177,1.177,0,0,0,70.5,43.969L58.388,56.084a15.677,15.677,0,0,0-15.118-6.8L63.725,28.876a13.6,13.6,0,0,1,9.17-.467L57.337,43.969A1.177,1.177,0,0,0,59,45.633L75.278,29.355a13.508,13.508,0,0,1,3.268,21.522l0,0L60.715,68.67A15.556,15.556,0,0,0,59.6,58.206" transform="translate(0 0)" fill="#fff"/>
      <path id="パス_1285" data-name="パス 1285" d="M19.736,91.391A10.052,10.052,0,1,0,29.79,101.443,10.062,10.062,0,0,0,19.736,91.391m0,17.751a7.7,7.7,0,1,1,7.7-7.7,7.707,7.707,0,0,1-7.7,7.7" transform="translate(-3.859 -36.42)" fill="#fff"/>
      <path id="パス_1286" data-name="パス 1286" d="M23.716,101.377a4.045,4.045,0,1,0,4.046,4.044,4.048,4.048,0,0,0-4.046-4.044m0,5.736a1.691,1.691,0,1,1,1.692-1.692,1.693,1.693,0,0,1-1.692,1.692" transform="translate(-7.84 -40.4)" fill="#fff"/>
      <path id="パス_1287" data-name="パス 1287" d="M44.174,69.185A10.052,10.052,0,1,0,34.122,59.132,10.065,10.065,0,0,0,44.174,69.185m0-17.751a7.7,7.7,0,1,1-7.7,7.7,7.709,7.709,0,0,1,7.7-7.7" transform="translate(-13.598 -19.559)" fill="#fff"/>
      <path id="パス_1288" data-name="パス 1288" d="M48.154,67.158a4.045,4.045,0,1,0-4.043-4.046,4.051,4.051,0,0,0,4.043,4.046m0-5.736a1.691,1.691,0,1,1-1.69,1.691,1.693,1.693,0,0,1,1.69-1.691" transform="translate(-17.579 -23.539)" fill="#fff"/>
    </g>
  </g>
  <text id="NO_IMAGE" data-name="NO IMAGE" transform="translate(86 135)" fill="#fff" font-size="16" font-family="Helvetica"><tspan x="0" y="0">NO IMAGE</tspan></text>
</svg>
