<svg xmlns="http://www.w3.org/2000/svg" xmlns:xlink="http://www.w3.org/1999/xlink" width="106.955" height="106.955" viewBox="0 0 106.955 106.955">
  <defs>
    <clipPath id="clip-path">
      <rect id="長方形_426" data-name="長方形 426" width="106.955" height="106.955" fill="#98938e"/>
    </clipPath>
  </defs>
  <g id="グループ_2126" data-name="グループ 2126" clip-path="url(#clip-path)">
    <path id="パス_1277" data-name="パス 1277" d="M53.474,0a53.478,53.478,0,1,0,53.48,53.477A53.535,53.535,0,0,0,53.474,0m0,103.042a49.564,49.564,0,1,1,49.567-49.565,49.619,49.619,0,0,1-49.567,49.565" fill="#98938e"/>
    <path id="パス_1278" data-name="パス 1278" d="M53.476,11.817A41.661,41.661,0,1,0,95.14,53.477a41.708,41.708,0,0,0-41.664-41.66m0,79.409A37.748,37.748,0,1,1,91.227,53.477,37.792,37.792,0,0,1,53.476,91.226" fill="#98938e"/>
    <path id="パス_1279" data-name="パス 1279" d="M50.485,53.478a2.993,2.993,0,1,0,2.993-2.993,3,3,0,0,0-2.993,2.993" fill="#98938e"/>
    <path id="パス_1280" data-name="パス 1280" d="M53.476,27.272a26.2,26.2,0,0,0,0,52.41,1.957,1.957,0,1,0,0-3.913A22.292,22.292,0,1,1,75.769,53.476a1.957,1.957,0,1,0,3.913,0,26.235,26.235,0,0,0-26.206-26.2" fill="#98938e"/>
    <path id="パス_1281" data-name="パス 1281" d="M65.468,51.52a1.955,1.955,0,0,0-1.957,1.956A10.033,10.033,0,1,1,53.478,43.445a1.956,1.956,0,0,0,0-3.913A13.945,13.945,0,1,0,67.425,53.476a1.956,1.956,0,0,0-1.957-1.956" fill="#98938e"/>
  </g>
</svg>
