<svg xmlns="http://www.w3.org/2000/svg" width="482" height="117.975" viewBox="0 0 482 117.975">
  <g id="コンポーネント_14_1" data-name="コンポーネント 14 – 1" transform="translate(1)">
    <text id="公共建築に木材を有効に使うための" transform="translate(241 26)" fill="#403b36" font-size="30" font-family="HiraginoSans-W3, Hiragino Sans"><tspan x="-240" y="0">公共建築に木材を</tspan><tspan y="0" fill="#d8c24b">有効</tspan><tspan y="0">に使うための</tspan></text>
    <text id="ヒント" transform="translate(55 101)" fill="#403b36" font-size="37" font-family="HiraginoSans-W3, Hiragino Sans"><tspan x="-55.5" y="0">ヒント</tspan></text>
    <text id="をお届けします" transform="translate(346 101)" fill="#403b36" font-size="37" font-family="HiraginoSans-W3, Hiragino Sans"><tspan x="-129.5" y="0">をお届けします</tspan></text>
    <g id="lamp" transform="translate(123 36)">
      <g id="グループ_2115" data-name="グループ 2115" transform="translate(17.078 17.078)">
        <path id="パス_1266" data-name="パス 1266" d="M34.033,69.9H23.786c-2.391,0-5.123-2.049-5.123-6.148V56.576a11.861,11.861,0,0,0-4.44-8.881A23.611,23.611,0,0,1,5,28.568,24.308,24.308,0,0,1,28.568,5a24.005,24.005,0,0,1,17.078,6.831A24.316,24.316,0,0,1,52.819,28.91a22.971,22.971,0,0,1-8.881,18.444,12.471,12.471,0,0,0-4.782,9.564v7.856A5.253,5.253,0,0,1,34.033,69.9ZM28.91,8.416c-10.93,0-20.152,9.222-20.494,20.152a20.077,20.077,0,0,0,7.856,16.4,14.885,14.885,0,0,1,5.807,11.613v7.173c0,.683,0,2.733,1.708,2.733H34.033a1.614,1.614,0,0,0,1.708-1.708V56.918a16.6,16.6,0,0,1,6.148-12.3A19.917,19.917,0,0,0,49.4,28.91a20.418,20.418,0,0,0-6.148-14.687A20.134,20.134,0,0,0,28.91,8.416Z" transform="translate(-5 -5)" fill="#d8c24b"/>
      </g>
      <g id="グループ_2116" data-name="グループ 2116" transform="translate(30.741 68.313)">
        <path id="パス_1267" data-name="パス 1267" d="M27.786,23.416H10.708a1.708,1.708,0,0,1,0-3.416H27.786a1.708,1.708,0,0,1,0,3.416Z" transform="translate(-9 -20)" fill="#d8c24b"/>
      </g>
      <g id="グループ_2117" data-name="グループ 2117" transform="translate(39.28)">
        <path id="パス_1268" data-name="パス 1268" d="M13.208,10.247A1.614,1.614,0,0,1,11.5,8.539V1.708A1.614,1.614,0,0,1,13.208,0a1.614,1.614,0,0,1,1.708,1.708V8.539A1.614,1.614,0,0,1,13.208,10.247Z" transform="translate(-11.5)" fill="#d8c24b"/>
      </g>
      <g id="グループ_2118" data-name="グループ 2118" transform="translate(61.994 11.784)">
        <path id="パス_1269" data-name="パス 1269" d="M20.029,11.477a2.054,2.054,0,0,1-1.366-.342,1.651,1.651,0,0,1,0-2.391l4.782-4.782a1.651,1.651,0,0,1,2.391,0,1.651,1.651,0,0,1,0,2.391l-4.782,4.782a3.441,3.441,0,0,1-1.025.342Z" transform="translate(-18.15 -3.45)" fill="#d8c24b"/>
      </g>
      <g id="グループ_2119" data-name="グループ 2119" transform="translate(71.729 39.28)">
        <path id="パス_1270" data-name="パス 1270" d="M29.539,14.916H22.708A1.614,1.614,0,0,1,21,13.208,1.614,1.614,0,0,1,22.708,11.5h6.831a1.614,1.614,0,0,1,1.708,1.708A1.614,1.614,0,0,1,29.539,14.916Z" transform="translate(-21 -11.5)" fill="#d8c24b"/>
      </g>
      <g id="グループ_2120" data-name="グループ 2120" transform="translate(61.994 62.336)">
        <path id="パス_1271" data-name="パス 1271" d="M24.811,26.277a2.054,2.054,0,0,1-1.366-.342l-4.782-4.782a1.691,1.691,0,0,1,2.391-2.391l4.782,4.782a1.651,1.651,0,0,1,0,2.391c0,.342-.342.342-1.025.342Z" transform="translate(-18.15 -18.25)" fill="#d8c24b"/>
      </g>
      <g id="グループ_2121" data-name="グループ 2121" transform="translate(11.442 62.336)">
        <path id="パス_1272" data-name="パス 1272" d="M5.229,26.277a2.054,2.054,0,0,1-1.366-.342,1.651,1.651,0,0,1,0-2.391l4.782-4.782a1.691,1.691,0,0,1,2.391,2.391L6.253,25.935a1.255,1.255,0,0,1-1.025.342Z" transform="translate(-3.35 -18.25)" fill="#d8c24b"/>
      </g>
      <g id="グループ_2122" data-name="グループ 2122" transform="translate(0 39.28)">
        <path id="パス_1273" data-name="パス 1273" d="M8.539,14.916H1.708A1.614,1.614,0,0,1,0,13.208,1.614,1.614,0,0,1,1.708,11.5H8.539a1.614,1.614,0,0,1,1.708,1.708A1.614,1.614,0,0,1,8.539,14.916Z" transform="translate(0 -11.5)" fill="#d8c24b"/>
      </g>
      <g id="グループ_2123" data-name="グループ 2123" transform="translate(11.442 11.442)">
        <path id="パス_1274" data-name="パス 1274" d="M10.011,11.718a2.054,2.054,0,0,1-1.366-.342L3.862,6.253a1.651,1.651,0,0,1,0-2.391,1.651,1.651,0,0,1,2.391,0l4.782,4.782a1.651,1.651,0,0,1,0,2.391c-.342.342-.683.683-1.025.683Z" transform="translate(-3.35 -3.35)" fill="#d8c24b"/>
      </g>
      <g id="グループ_2124" data-name="グループ 2124" transform="translate(39.28 25.617)">
        <path id="パス_1275" data-name="パス 1275" d="M26.87,24.578a1.614,1.614,0,0,1-1.708-1.708A12.1,12.1,0,0,0,13.208,10.916,1.614,1.614,0,0,1,11.5,9.208,1.614,1.614,0,0,1,13.208,7.5a15.306,15.306,0,0,1,15.37,15.37A1.614,1.614,0,0,1,26.87,24.578Z" transform="translate(-11.5 -7.5)" fill="#d8c24b"/>
      </g>
    </g>
    <rect id="長方形_423" data-name="長方形 423" width="68" height="4" rx="2" transform="translate(237 34)" fill="#d8c24b"/>
  </g>
</svg>
